<?xml version="1.0" standalone="no"?>
<svg xmlns:xlink="http://www.w3.org/1999/xlink" id="wave" style="transform:rotate(0deg); transition: 0.3s" viewBox="0 0 1440 230" version="1.1" xmlns="http://www.w3.org/2000/svg"><defs><linearGradient id="sw-gradient-0" x1="0" x2="0" y1="1" y2="0"><stop stop-color="rgba(228, 210, 234, 1)" offset="0%"/><stop stop-color="rgba(210.968, 173.537, 223.445, 1)" offset="100%"/></linearGradient></defs><path style="transform:translate(0, 0px); opacity:1" fill="url(#sw-gradient-0)" d="M0,92L80,111.2C160,130,320,169,480,180.2C640,192,800,176,960,145.7C1120,115,1280,69,1440,49.8C1600,31,1760,38,1920,49.8C2080,61,2240,77,2400,103.5C2560,130,2720,169,2880,161C3040,153,3200,100,3360,65.2C3520,31,3680,15,3840,38.3C4000,61,4160,123,4320,138C4480,153,4640,123,4800,122.7C4960,123,5120,153,5280,157.2C5440,161,5600,138,5760,107.3C5920,77,6080,38,6240,38.3C6400,38,6560,77,6720,107.3C6880,138,7040,161,7200,168.7C7360,176,7520,169,7680,172.5C7840,176,8000,192,8160,164.8C8320,138,8480,69,8640,42.2C8800,15,8960,31,9120,65.2C9280,100,9440,153,9600,145.7C9760,138,9920,69,10080,69C10240,69,10400,138,10560,161C10720,184,10880,161,11040,149.5C11200,138,11360,138,11440,138L11520,138L11520,230L11440,230C11360,230,11200,230,11040,230C10880,230,10720,230,10560,230C10400,230,10240,230,10080,230C9920,230,9760,230,9600,230C9440,230,9280,230,9120,230C8960,230,8800,230,8640,230C8480,230,8320,230,8160,230C8000,230,7840,230,7680,230C7520,230,7360,230,7200,230C7040,230,6880,230,6720,230C6560,230,6400,230,6240,230C6080,230,5920,230,5760,230C5600,230,5440,230,5280,230C5120,230,4960,230,4800,230C4640,230,4480,230,4320,230C4160,230,4000,230,3840,230C3680,230,3520,230,3360,230C3200,230,3040,230,2880,230C2720,230,2560,230,2400,230C2240,230,2080,230,1920,230C1760,230,1600,230,1440,230C1280,230,1120,230,960,230C800,230,640,230,480,230C320,230,160,230,80,230L0,230Z"/><defs><linearGradient id="sw-gradient-1" x1="0" x2="0" y1="1" y2="0"><stop stop-color="rgba(212.86, 181.106, 223.445, 1)" offset="0%"/><stop stop-color="rgba(243.64, 209.561, 255, 1)" offset="100%"/></linearGradient></defs><path style="transform:translate(0, 50px); opacity:0.9" fill="url(#sw-gradient-1)" d="M0,0L80,3.8C160,8,320,15,480,26.8C640,38,800,54,960,49.8C1120,46,1280,23,1440,23C1600,23,1760,46,1920,69C2080,92,2240,115,2400,107.3C2560,100,2720,61,2880,57.5C3040,54,3200,84,3360,107.3C3520,130,3680,146,3840,149.5C4000,153,4160,146,4320,149.5C4480,153,4640,169,4800,172.5C4960,176,5120,169,5280,172.5C5440,176,5600,192,5760,172.5C5920,153,6080,100,6240,95.8C6400,92,6560,138,6720,164.8C6880,192,7040,199,7200,176.3C7360,153,7520,100,7680,76.7C7840,54,8000,61,8160,84.3C8320,107,8480,146,8640,145.7C8800,146,8960,107,9120,76.7C9280,46,9440,23,9600,26.8C9760,31,9920,61,10080,69C10240,77,10400,61,10560,69C10720,77,10880,107,11040,122.7C11200,138,11360,138,11440,138L11520,138L11520,230L11440,230C11360,230,11200,230,11040,230C10880,230,10720,230,10560,230C10400,230,10240,230,10080,230C9920,230,9760,230,9600,230C9440,230,9280,230,9120,230C8960,230,8800,230,8640,230C8480,230,8320,230,8160,230C8000,230,7840,230,7680,230C7520,230,7360,230,7200,230C7040,230,6880,230,6720,230C6560,230,6400,230,6240,230C6080,230,5920,230,5760,230C5600,230,5440,230,5280,230C5120,230,4960,230,4800,230C4640,230,4480,230,4320,230C4160,230,4000,230,3840,230C3680,230,3520,230,3360,230C3200,230,3040,230,2880,230C2720,230,2560,230,2400,230C2240,230,2080,230,1920,230C1760,230,1600,230,1440,230C1280,230,1120,230,960,230C800,230,640,230,480,230C320,230,160,230,80,230L0,230Z"/></svg>